<?xml version="1.0" standalone="no"?>
<!DOCTYPE svg PUBLIC "-//W3C//DTD SVG 20010904//EN"
 "http://www.w3.org/TR/2001/REC-SVG-20010904/DTD/svg10.dtd">
<svg version="1.0" xmlns="http://www.w3.org/2000/svg"
 width="255.000000pt" height="272.000000pt" viewBox="0 0 255.000000 272.000000"
 preserveAspectRatio="xMidYMid meet">

<g transform="translate(0.000000,272.000000) scale(0.100000,-0.100000)"
fill="#000000" stroke="none">
<path d="M1127 2306 c-60 -13 -84 -27 -73 -44 4 -6 23 -5 53 4 126 39 288 24
412 -37 79 -39 171 -130 224 -219 82 -142 135 -403 123 -620 -20 -397 -117
-658 -311 -837 -126 -117 -239 -171 -420 -198 -170 -25 -375 15 -524 104 -134
79 -239 220 -277 371 -20 79 -14 298 9 372 50 153 144 267 271 328 44 21 101
42 126 46 67 10 84 23 30 24 -41 0 -141 -19 -182 -35 -15 -6 -15 2 7 66 29 83
31 109 11 109 -10 0 -24 -29 -40 -82 -22 -70 -38 -97 -102 -178 -138 -171
-178 -285 -178 -500 0 -122 3 -143 29 -219 95 -279 366 -450 712 -451 62 0
144 7 184 15 360 76 608 382 673 827 24 165 29 294 16 427 -32 350 -156 574
-379 686 -103 51 -266 68 -394 41z"/>
<path d="M930 2224 c-79 -51 -144 -117 -206 -210 -68 -102 -89 -150 -70 -157
10 -4 30 22 62 80 58 103 155 210 235 259 32 20 59 43 59 50 0 22 -22 16 -80
-22z"/>
<path d="M633 1805 c0 -27 2 -38 4 -22 2 15 2 37 0 50 -2 12 -4 0 -4 -28z"/>
</g>
</svg>
